<?xml version="1.0" encoding="UTF-8" standalone="no"?>
<svg width="314px" height="316px" viewBox="0 0 314 316" version="1.1" xmlns="http://www.w3.org/2000/svg" xmlns:xlink="http://www.w3.org/1999/xlink" xmlns:sketch="http://www.bohemiancoding.com/sketch/ns">
    <!-- Generator: Sketch 3.3.1 (12005) - http://www.bohemiancoding.com/sketch -->
    <title>logo</title>
    <desc>Created with Sketch.</desc>
    <defs></defs>
    <g id="Page-1" stroke="none" stroke-width="1" fill="none" fill-rule="evenodd" sketch:type="MSPage">
        <path d="M20,47 L20,47 L20,223 C20,237.916866 32.0859247,250 47.0030639,250 L212.996936,250 C227.907685,250 240,237.909597 240,223 L240,47 C240,32.0831342 227.914075,20 212.996936,20 L47.0030639,20 C32.0923151,20 20,32.0904029 20,47 L20,47 Z M7,47 C7,24.90861 24.9147046,7 47.0030639,7 L212.996936,7 C235.090018,7 253,24.8996742 253,47 L253,223 C253,245.09139 235.085295,263 212.996936,263 L47.0030639,263 C24.9099818,263 7,245.100326 7,223 L7,47 L7,47 Z" id="Shape" fill="#76A942" sketch:type="MSShapeGroup"></path>
        <path d="M74,93 L74,93 L74,269 C74,283.916866 86.0859247,296 101.003064,296 L266.996936,296 C281.907685,296 294,283.909597 294,269 L294,93 C294,78.0831342 281.914075,66 266.996936,66 L101.003064,66 C86.0923151,66 74,78.0904029 74,93 L74,93 Z M61,93 C61,70.90861 78.9147046,53 101.003064,53 L266.996936,53 C289.090018,53 307,70.8996742 307,93 L307,269 C307,291.09139 289.085295,309 266.996936,309 L101.003064,309 C78.9099818,309 61,291.100326 61,269 L61,93 L61,93 Z" id="Shape" fill="#016FDE" sketch:type="MSShapeGroup"></path>
    </g>
</svg>